<svg id="Capa_1" enable-background="new 0 0 512 512" height="512" viewBox="0 0 512 512" width="512" xmlns="http://www.w3.org/2000/svg"><g><g><path d="m457.744 255.996c0-25.546 20.71-46.256 46.256-46.256v-78.318c0-8.284-6.716-15-15-15h-466c-8.284 0-15 6.716-15 15v249.154c0 8.284 6.716 15 15 15h466c8.284 0 15-6.716 15-15v-78.325c-25.546.001-46.256-20.709-46.256-46.255z" fill="#ffde8f"/><g><g><g><path d="m489 377.577h-466c-8.284 0-15-6.716-15-15v18c0 8.284 6.716 15 15 15h466c8.284 0 15-6.716 15-15v-18c0 8.284-6.716 15-15 15z" fill="#f9cd7f"/></g></g></g><path d="m475.638 116.423-15.615-51.732c-2.394-7.931-10.764-12.42-18.694-10.026l-204.606 61.758z" fill="#fcc07e"/><path d="m296.357 98.423-59.634 18h238.915l-5.433-18z" fill="#f9b067"/><path d="m36.362 395.577 15.615 51.732c2.394 7.931 10.764 12.42 18.694 10.026l204.606-61.758z" fill="#fcc07e"/><path d="m215.643 413.577 59.634-18h-238.915l5.433 18z" fill="#f9b067"/><path d="m240.069 251.824h-138.97c-5.523 0-10-4.477-10-10v-20.14c0-5.523 4.477-10 10-10h138.97c5.523 0 10 4.477 10 10v20.14c0 5.523-4.477 10-10 10z" fill="#9dc6fa"/><path d="m240.069 233.824h-138.97c-5.523 0-10-4.477-10-10v18c0 5.523 4.477 10 10 10h138.97c5.523 0 10-4.477 10-10v-18c0 5.523-4.477 10-10 10z" fill="#7eb7f6"/><path d="m234.911 251.824h-128.655v71.997c0 8.284 6.716 15 15 15h98.654c8.284 0 15-6.716 15-15v-71.997z" fill="#61a2f5"/><path d="m219.911 320.821h-98.654c-8.284 0-15-6.716-15-15v18c0 8.284 6.716 15 15 15h98.654c8.284 0 15-6.716 15-15v-18c0 8.284-6.716 15-15 15z" fill="#4b93e2"/><path d="m154.004 181.473h33.159v30.211h-33.159z" fill="#cc353e"/><path d="m154.004 181.473s-11.947-23.873-29.041-15.501c-19.046 9.328-13.395 45.712-13.395 45.712h42.436z" fill="#ff4d54"/><path d="m187.163 181.473s11.947-23.873 29.04-15.501c19.046 9.328 13.395 45.712 13.395 45.712h-42.436z" fill="#ff4d54"/><path d="m111.014 193.685c-.73 9.692.554 18 .554 18h42.436v-18z" fill="#ea4955"/><path d="m154.004 193.685h33.159v18h-33.159z" fill="#c12131"/><path d="m187.163 211.685h42.436s1.284-8.308.555-18h-42.99z" fill="#ea4955"/></g><g><path d="m504.485 217.165c4.151 0 7.515-3.364 7.515-7.515v-78.47c0-12.431-10.113-22.544-22.544-22.544h-7.808l-14.033-46.49c-3.591-11.899-16.19-18.663-28.096-15.068l-56.555 17.07c-3.974 1.199-6.222 5.392-5.023 9.365s5.389 6.224 9.365 5.022l56.555-17.069c3.967-1.2 8.169 1.056 9.366 5.022l12.722 42.148h-178.363l70.962-21.419c3.974-1.199 6.222-5.392 5.023-9.365-1.2-3.974-5.393-6.227-9.365-5.023l-118.629 35.806h-129.772c-4.15 0-7.515 3.364-7.515 7.515s3.365 7.515 7.515 7.515h383.651c4.144 0 7.515 3.371 7.515 7.515v71.479c-26.154 3.668-46.346 26.19-46.346 53.339s20.193 49.67 46.346 53.339v71.486c0 4.144-3.371 7.515-7.515 7.515h-66.975c-4.151 0-7.515 3.364-7.515 7.515s3.364 7.515 7.515 7.515h66.975c12.431 0 22.544-10.114 22.544-22.544v-78.479c0-4.151-3.364-7.515-7.515-7.515-21.412 0-38.832-17.42-38.832-38.832.001-21.413 17.42-38.833 38.832-38.833z"/><path d="m392.423 388.336h-369.879c-4.144 0-7.515-3.371-7.515-7.515v-249.641c0-4.144 3.371-7.515 7.515-7.515h53.202c4.15 0 7.515-3.364 7.515-7.515s-3.365-7.515-7.515-7.515h-53.202c-12.431.001-22.544 10.114-22.544 22.545v249.642c0 12.43 10.113 22.544 22.544 22.544h7.807l14.032 46.49c2.939 9.738 11.91 16.031 21.594 16.031 2.151 0 210.445-62.522 210.445-62.522h116c4.151 0 7.515-3.364 7.515-7.515s-3.364-7.514-7.514-7.514zm-324.286 62.2c-3.965 1.197-8.168-1.058-9.365-5.022l-12.722-42.148h178.364z"/><path d="m312.478 195.759c0 4.151 3.364 7.515 7.515 7.515s7.515-3.364 7.515-7.515v-15.029c0-4.151-3.364-7.515-7.515-7.515s-7.515 3.364-7.515 7.515z"/><path d="m312.478 285.935c0 4.151 3.364 7.515 7.515 7.515s7.515-3.364 7.515-7.515v-15.029c0-4.151-3.364-7.515-7.515-7.515s-7.515 3.364-7.515 7.515z"/><path d="m312.478 376.111c0 4.151 3.364 7.515 7.515 7.515s7.515-3.364 7.515-7.515v-15.029c0-4.151-3.364-7.515-7.515-7.515s-7.515 3.364-7.515 7.515z"/><path d="m312.478 331.023c0 4.151 3.364 7.515 7.515 7.515s7.515-3.364 7.515-7.515v-15.029c0-4.151-3.364-7.515-7.515-7.515s-7.515 3.364-7.515 7.515z"/><path d="m319.992 158.186c4.151 0 7.515-3.364 7.515-7.515v-15.029c0-4.151-3.364-7.515-7.515-7.515s-7.515 3.364-7.515 7.515v15.029c.001 4.151 3.364 7.515 7.515 7.515z"/><path d="m312.478 240.847c0 4.151 3.364 7.515 7.515 7.515s7.515-3.364 7.515-7.515v-15.029c0-4.151-3.364-7.515-7.515-7.515s-7.515 3.364-7.515 7.515z"/><path d="m382.031 311.367v-107.73c0-4.151-3.364-7.515-7.515-7.515s-7.515 3.364-7.515 7.515v107.73c0 4.151 3.364 7.515 7.515 7.515s7.515-3.365 7.515-7.515z"/><path d="m418.102 286.253v-57.503c0-4.151-3.364-7.515-7.515-7.515s-7.515 3.364-7.515 7.515v57.503c0 4.151 3.364 7.515 7.515 7.515s7.515-3.364 7.515-7.515z"/><path d="m83.261 221.618v20.179c0 8.871 6.628 16.205 15.188 17.358v64.799c0 12.431 10.113 22.544 22.544 22.544h98.847c12.431 0 22.544-10.113 22.544-22.544v-64.799c8.56-1.153 15.187-8.488 15.187-17.358v-20.179c0-9.668-7.865-17.534-17.534-17.534h-2.291c.157-3.58.164-7.962-.273-12.587-1.93-20.46-10.877-28.938-18.043-32.448-16.525-8.093-30.087 4.428-36.743 14.765h-24.543c-6.655-10.339-20.217-22.863-36.743-14.765-7.166 3.51-16.113 11.988-18.043 32.448-.436 4.625-.43 9.007-.273 12.587h-2.291c-9.667 0-17.533 7.866-17.533 17.534zm15.029 0c0-1.382 1.124-2.505 2.505-2.505h61.407v25.189h-61.407c-1.381 0-2.505-1.123-2.505-2.505zm15.188 102.337v-64.623h48.724v72.138h-41.209c-4.144-.001-7.515-3.371-7.515-7.515zm113.877 0c0 4.144-3.371 7.515-7.515 7.515h-42.609v-72.138h50.124zm15.188-102.337v20.179c0 1.382-1.124 2.505-2.505 2.505h-62.807v-25.189h62.807c1.381 0 2.505 1.124 2.505 2.505zm-29.723-49.072c9.203 4.508 10.414 21.04 9.898 31.538h-28.176v-20.819c2.373-4.022 9.763-14.888 18.278-10.719zm-33.306 31.538h-18.194v-15.241h18.194zm-51.502-31.538c5.228-4.41 15.74 5.079 18.278 10.743v20.795h-28.176c-.515-10.503.697-27.031 9.898-31.538z"/></g></g></svg>